<svg version="1.1" xmlns="http://www.w3.org/2000/svg" width="1088" height="1024" viewBox="0 0 1088 1024">
<title></title>
<g id="icomoon-ignore">
</g>
<path fill="#242424" d="M1024 512c0 282.77-229.23 512-512 512s-512-229.23-512-512c0-282.77 229.23-512 512-512s512 229.23 512 512z"></path>
<path fill="#f4f4f4" d="M339.2 374.858h-38.4c-10.64 0-19.2 9.171-19.2 20.57v89.146h-19.2c-3.52 0-6.4 3.085-6.4 6.854v41.146c0 3.77 2.88 6.854 6.4 6.854h19.2v89.146c0 11.398 8.56 20.57 19.2 20.57h38.4c10.64 0 19.2-9.171 19.2-20.57v-233.146c0-11.398-8.56-20.57-19.2-20.57zM761.6 484.573h-19.2v-89.146c0-11.398-8.56-20.57-19.2-20.57h-38.4c-10.64 0-19.2 9.171-19.2 20.57v233.146c0 11.398 8.56 20.57 19.2 20.57h38.4c10.64 0 19.2-9.171 19.2-20.57v-89.146h19.2c3.52 0 6.4-3.085 6.4-6.854v-41.146c0-3.77-2.88-6.854-6.4-6.854zM620.8 320h-38.4c-10.64 0-19.2 9.171-19.2 20.573v144h-102.4v-144c0-11.402-8.56-20.573-19.2-20.573h-38.4c-10.64 0-19.2 9.171-19.2 20.573v342.854c0 11.402 8.56 20.573 19.2 20.573h38.4c10.64 0 19.2-9.171 19.2-20.573v-144h102.4v144c0 11.402 8.56 20.573 19.2 20.573h38.4c10.64 0 19.2-9.171 19.2-20.573v-342.854c0-11.402-8.56-20.573-19.2-20.573z"></path>
</svg>
