

<svg aria-hidden="true" style="position: absolute; width: 0; height: 0; overflow: hidden;" version="1.1"
            xmlns="http://www.w3.org/2000/svg" xmlns:xlink="http://www.w3.org/1999/xlink">
    <defs>

            <symbol id="icon-star-yellow" viewBox="0 0 34 32">
                <path  d="M14.89 2.282c0.738-2.267 3.946-2.267 4.682 0l2.080 6.4c0.33 0.997 1.253 1.703 2.341 1.703h6.732c2.385 0 3.375 3.052 1.447 4.453l-5.447 3.956c-0.618 0.453-1.014 1.176-1.014 1.991 0 0.272 0.044 0.534 0.126 0.778l-0.005-0.017 2.080 6.402c0.738 2.267-1.858 4.155-3.788 2.752l-5.445-3.956c-0.401-0.294-0.903-0.471-1.447-0.471s-1.047 0.176-1.454 0.475l0.007-0.005-5.445 3.956c-1.93 1.403-4.524-0.485-3.788-2.752l2.080-6.4c0.077-0.228 0.121-0.49 0.121-0.763 0-0.816-0.397-1.539-1.008-1.987l-0.007-0.005-5.447-3.956c-1.927-1.403-0.935-4.455 1.447-4.455h6.732c1.086-0.001 2.007-0.705 2.333-1.681l0.005-0.017 2.082-6.4z"></path>
            </symbol>

         <symbol id="img-skeleton" viewBox="0 0 32 32">
                <path d="M29.996 4c0.001 0.001 0.003 0.002 0.004 0.004v23.993c-0.001 0.001-0.002 0.003-0.004 0.004h-27.993c-0.001-0.001-0.003-0.002-0.004-0.004v-23.993c0.001-0.001 0.002-0.003 0.004-0.004h27.993zM30 2h-28c-1.1 0-2 0.9-2 2v24c0 1.1 0.9 2 2 2h28c1.1 0 2-0.9 2-2v-24c0-1.1-0.9-2-2-2v0z"></path>
                 <path d="M26 9c0 1.657-1.343 3-3 3s-3-1.343-3-3 1.343-3 3-3 3 1.343 3 3z"></path>
                 <path d="M28 26h-24v-4l7-12 8 10h2l7-6z"></path>
            </symbol>
                <!-- гантелька -->
                <symbol id="icon-equipment" viewBox="0 0 34 32">
                    <path fill="#242424" style="fill: var(--color2, #242424)"
                        d="M32 16c0 8.837-7.163 16-16 16s-16-7.163-16-16c0-8.837 7.163-16 16-16s16 7.163 16 16z"></path>
                    <path fill="#f4f4f4" style="fill: var(--color3, #f4f4f4)"
                        d="M10.6 11.714h-1.2c-0.332 0-0.6 0.287-0.6 0.643v2.786h-0.6c-0.11 0-0.2 0.096-0.2 0.214v1.286c0 0.118 0.090 0.214 0.2 0.214h0.6v2.786c0 0.356 0.268 0.643 0.6 0.643h1.2c0.332 0 0.6-0.287 0.6-0.643v-7.286c0-0.356-0.268-0.643-0.6-0.643zM23.8 15.143h-0.6v-2.786c0-0.356-0.267-0.643-0.6-0.643h-1.2c-0.332 0-0.6 0.287-0.6 0.643v7.286c0 0.356 0.267 0.643 0.6 0.643h1.2c0.332 0 0.6-0.287 0.6-0.643v-2.786h0.6c0.11 0 0.2-0.096 0.2-0.214v-1.286c0-0.118-0.090-0.214-0.2-0.214zM19.4 10h-1.2c-0.332 0-0.6 0.287-0.6 0.643v4.5h-3.2v-4.5c0-0.356-0.268-0.643-0.6-0.643h-1.2c-0.332 0-0.6 0.287-0.6 0.643v10.714c0 0.356 0.268 0.643 0.6 0.643h1.2c0.332 0 0.6-0.287 0.6-0.643v-4.5h3.2v4.5c0 0.356 0.267 0.643 0.6 0.643h1.2c0.332 0 0.6-0.287 0.6-0.643v-10.714c0-0.356-0.267-0.643-0.6-0.643z">
                    </path>
                </symbol>
                <!-- хрестик -->
                <symbol id="modalclose" viewBox="0 0 32 32">
                    <path fill="none" stroke="var(--dark-color)" style="stroke: var(--color1, #f4f4f4)" stroke-linejoin="round"
                        stroke-linecap="round" stroke-miterlimit="4" stroke-width="2.2857"
                        d="M22.667 9.333l-13.333 13.333M9.333 9.333l13.333 13.333"></path>
                </symbol>
                <!-- логотип -->
                <symbol id="icon-logo" viewBox="0 0 176 32">
                    <path
                        d="M6.64 17.707l-6.64-11.040h3.973l4.453 7.653h0.053l4.453-7.653h3.973l-6.64 11.040v7.627h-3.627v-7.627zM16.893 22.267v-12.533l3.067-3.067h9.6l3.067 3.067v12.533l-3.067 3.067h-9.6l-3.067-3.067zM27.64 22.24l1.36-1.36v-9.76l-1.36-1.36h-5.76l-1.36 1.36v9.76l1.36 1.36h5.76zM35.165 22.133v-15.467h3.627v14.213l1.36 1.36h5.227l1.36-1.36v-14.213h3.627v15.467l-3.2 3.2h-8.8l-3.2-3.2zM67.837 19.147v6.187h-3.627v-5.36l-1.6-1.787h-5.813v7.147h-3.627v-18.667h11.707l2.853 2.88v5.653l-1.813 1.84 1.92 2.107zM56.797 15.2h6.427l0.933-0.933v-3.627l-0.933-0.933h-6.427v5.493zM77.097 6.667h13.493v3.067h-9.867v4.72h9.093v3.013h-9.093v4.8h9.867v3.067h-13.493v-18.667zM92.603 6.667h3.253l8.32 12.667h0.053v-12.667h3.493v18.667h-3.253l-8.32-12.64h-0.053v12.64h-3.493v-18.667zM110.531 6.667h13.493v3.067h-9.867v4.72h9.093v3.013h-9.093v4.8h9.867v3.067h-13.493v-18.667zM140.703 19.147v6.187h-3.627v-5.36l-1.6-1.787h-5.813v7.147h-3.627v-18.667h11.707l2.853 2.88v5.653l-1.813 1.84 1.92 2.107zM129.663 15.2h6.427l0.933-0.933v-3.627l-0.933-0.933h-6.427v5.493zM143.097 22.267v-12.533l3.067-3.067h9.28l3.013 3.013v2.853h-3.627v-1.52l-1.253-1.253h-5.493l-1.36 1.36v9.76l1.36 1.36h5.547l1.307-1.307v-2.907h-4v-3.093h7.52v7.333l-3.067 3.067h-9.227l-3.067-3.067zM165.104 17.707l-6.64-11.040h3.973l4.453 7.653h0.053l4.453-7.653h3.973l-6.64 11.040v7.627h-3.627v-7.627z">
                    </path>
                </symbol>
                <symbol id="icon-facebook" viewBox="0 0 32 32">
                    <path
                        d="M19.52 4.64h0.96v3.6h-1.2c-0.48 0-0.96 0-1.2 0.24s-0.24 0.48-0.24 1.040v1.28h2.64v3.040h-2.64v13.2h-4.080v-13.28h-2.16v-3.040h2.16v-1.040c0-1.76 0.24-3.040 0.72-3.6 0.72-1.040 2.16-1.52 4.32-1.52 0.24 0.080 0.48 0.080 0.72 0.080z">
                    </path>
                </symbol>
                <symbol id="icon-instagram" viewBox="0 0 32 32">
                    <path
                        d="M28.719 10.756c-0.016-1.134-0.233-2.213-0.617-3.209l0.021 0.063c-0.681-1.722-2.020-3.059-3.698-3.722l-0.044-0.015c-0.921-0.356-1.986-0.572-3.098-0.596l-0.010-0c-1.368-0.060-1.801-0.077-5.273-0.077-3.471 0-3.916 0-5.273 0.077-1.122 0.024-2.186 0.24-3.171 0.618l0.064-0.022c-1.723 0.678-3.062 2.015-3.727 3.693l-0.015 0.044c-0.357 0.919-0.574 1.982-0.596 3.092l-0 0.009c-0.061 1.367-0.080 1.8-0.080 5.265 0 3.467 0 3.908 0.080 5.265 0.023 1.121 0.24 2.184 0.618 3.168l-0.022-0.064c0.682 1.721 2.021 3.057 3.7 3.719l0.044 0.015c0.917 0.37 1.98 0.602 3.091 0.64l0.016 0c1.369 0.060 1.803 0.079 5.273 0.079 3.472 0 3.917 0 5.275-0.080 1.122-0.023 2.186-0.239 3.171-0.616l-0.064 0.022c1.723-0.679 3.061-2.015 3.728-3.692l0.016-0.044c0.357-0.92 0.573-1.983 0.596-3.094l0-0.010c0.061-1.365 0.080-1.799 0.080-5.267-0.004-3.465-0.004-3.904-0.083-5.263zM15.991 22.531c-0.002 0-0.005 0-0.008 0-3.624 0-6.562-2.936-6.565-6.56v-0c0.002-3.624 2.941-6.561 6.565-6.561 0.003 0 0.006 0 0.008 0h-0c0.002 0 0.003 0 0.005 0 3.624 0 6.563 2.936 6.567 6.56v0c-0.003 3.624-2.942 6.561-6.567 6.561-0.002 0-0.005 0-0.007 0h0zM22.824 10.696c-0.845 0-1.53-0.685-1.53-1.53s0.685-1.53 1.53-1.53v0c0.845 0 1.53 0.685 1.53 1.53s-0.685 1.53-1.53 1.53v0z">
                    </path>
                    <path
                        d="M15.992 19.976c2.211 0 4.004-1.793 4.004-4.004s-1.793-4.004-4.004-4.004v0c-2.211 0-4.004 1.793-4.004 4.004s1.793 4.004 4.004 4.004v0z">
                    </path>
                </symbol>
                <symbol id="icon-youtube" viewBox="0 0 32 32">
                    <path
                        d="M24.24 6c-1.36-0.080-4.16-0.16-8.4-0.16h-0.56c-4.080 0-6.8 0.080-8.16 0.24-1.84 0.16-3.12 0.64-3.84 1.28-0.64 0.56-1.12 1.6-1.28 2.96-0.080 0.88-0.16 2.72-0.16 5.52v0.4c0 2.64 0.080 4.48 0.24 5.36 0.24 1.28 0.64 2.24 1.44 2.8 0.8 0.64 2.16 1.040 4.080 1.2 1.36 0.080 4.16 0.16 8.4 0.16h0.56c4.080 0 6.8-0.080 8.16-0.24 1.84-0.16 3.12-0.64 3.84-1.28 0.64-0.56 1.12-1.6 1.28-2.96 0.080-0.88 0.16-2.72 0.16-5.52v-0.4c0-2.64-0.080-4.48-0.24-5.36-0.24-1.28-0.64-2.24-1.44-2.8-0.8-0.64-2.16-1.040-4.080-1.2zM21.12 15.84l-8.8 5.28v-10.56l8.8 5.28z">
                    </path>
                </symbol>

                <!-- right-arrow -->
                <symbol id="icon-right-arrow" viewBox="0 0 16 16">
                    <path d="M7.5 14L14 7.5M14 7.5L7.5 1M14 7.5H1" />
                </symbol>

                <!-- run-man -->
                <symbol id="icon-run-men" viewBox="0 0 34 32">
                    <path fill="#f4f4f4" style="fill: var(--color1, #f4f4f4)" opacity="0.2"
                        d="M32 16c0 8.837-7.163 16-16 16s-16-7.163-16-16c0-8.837 7.163-16 16-16s16 7.163 16 16z"></path>
                    <path fill="#f4f4f4" style="fill: var(--color1, #f4f4f4)"
                        d="M24.73 11.907c-0.142-0.163-0.35-0.265-0.582-0.265-0.185 0-0.354 0.065-0.487 0.173l0.001-0.001-2.1 1.723-0.965-2.337c-0.036-0.088-0.085-0.163-0.146-0.227l0 0c-0.208-0.45-0.562-0.803-0.999-1.005l-0.013-0.005c-0.183-0.082-0.396-0.14-0.619-0.163l-0.009-0.001c-0.047-0.023-0.090-0.055-0.142-0.071l-3.695-1.006c-0.060-0.016-0.128-0.026-0.198-0.026-0.143 0-0.276 0.039-0.391 0.106l0.004-0.002c-0.21 0.066-0.376 0.219-0.458 0.415l-0.002 0.005-1.391 3.495c-0.15 0.38 0.042 0.809 0.432 0.958 0.081 0.032 0.175 0.050 0.273 0.050 0.317 0 0.589-0.193 0.705-0.468l0.002-0.005 1.175-2.951 1.683 0.457c-0.041 0.065-0.086 0.125-0.119 0.195l-2.157 4.568c-0.031 0.067-0.048 0.135-0.070 0.204l-2.621 4.295-4.387 1.434c-0.276 0.198-0.453 0.518-0.453 0.88 0 0.246 0.082 0.472 0.22 0.654l-0.002-0.003c0.369 0.486 1.070 0.59 1.566 0.23l4.489-1.51c0.137-0.098 0.237-0.225 0.313-0.363 0.056-0.058 0.12-0.105 0.164-0.178l1.563-2.56 2.774 2.31-2.969 3.269c-0.174 0.191-0.281 0.445-0.281 0.725 0 0.327 0.146 0.619 0.376 0.817l0.001 0.001c0.462 0.402 1.17 0.36 1.582-0.093l3.704-4.078c0.115-0.125 0.184-0.27 0.23-0.422 0.028-0.082 0.028-0.168 0.035-0.253 0-0.044 0.016-0.083 0.013-0.123-0.007-0.32-0.155-0.604-0.383-0.795l-0.002-0.001-2.552-2.127c0.185-0.171 0.337-0.375 0.448-0.602l0.005-0.012 1.654-3.5 0.53 1.38c0.020 0.132 0.074 0.249 0.154 0.344l-0.001-0.001c0.078 0.087 0.175 0.154 0.285 0.196l0.005 0.002c0.011 0.006 0.024 0.007 0.038 0.010 0.061 0.025 0.133 0.043 0.207 0.050l0.003 0c0.017 0.001 0.036 0.002 0.055 0.002 0.073 0 0.143-0.011 0.21-0.030l-0.005 0.001 0.003-0.002c0.023-0.005 0.047 0 0.070-0.010 0.119-0.047 0.219-0.12 0.297-0.212l0.001-0.001 3.013-2.498c0.32-0.263 0.185-0.729-0.085-1.042zM20.919 10.126c1.166 0 2.111-0.923 2.111-2.063s-0.945-2.063-2.11-2.063c-1.166 0-2.112 0.924-2.112 2.063 0 1.14 0.946 2.063 2.112 2.063z">
                    </path>
                </symbol>

                <symbol id="icon-run-men2" viewBox="0 0 24 24">
                    <path
                        d="M18.8234 8.72544C18.6138 8.47504 18.2403 8.44212 17.9899 8.65092L16.349 10.0294L15.5943 8.15967C15.5675 8.08949 15.5267 8.03057 15.4799 7.97859C15.3257 7.63549 15.058 7.34091 14.6889 7.17023C14.5286 7.09745 14.3631 7.05846 14.1977 7.0394C14.1613 7.02034 14.1283 6.99521 14.0868 6.98222L11.199 6.17732C11.037 6.13314 10.8741 6.16173 10.7407 6.2397C10.5821 6.29342 10.4461 6.40865 10.3811 6.57587L9.29378 9.37178C9.17594 9.67589 9.3267 10.019 9.63168 10.1386C9.93492 10.2564 10.2789 10.1048 10.3976 9.79978L11.316 7.43882L12.6312 7.80444C12.5991 7.85643 12.5645 7.90495 12.5385 7.9604L10.8524 11.6149C10.8282 11.6686 10.8152 11.7232 10.7979 11.7787L8.7488 15.214L5.31955 16.3611C4.9314 16.6514 4.84909 17.1981 5.13587 17.5862C5.42439 17.9752 5.97282 18.0575 6.36011 17.7708L9.86907 16.5621C9.97651 16.4841 10.0545 16.3819 10.1134 16.2719C10.1576 16.2251 10.2078 16.1878 10.2416 16.1298L11.4633 14.0816L13.6319 15.9296L11.3116 18.5445C10.9919 18.9049 11.024 19.4603 11.3862 19.7791C11.7474 20.1005 12.3011 20.0667 12.6225 19.7046L15.5181 16.4426C15.6082 16.342 15.6619 16.2259 15.6983 16.1047C15.7199 16.0388 15.7199 15.9704 15.7251 15.9019C15.7251 15.8673 15.7381 15.8361 15.7355 15.804C15.7277 15.5649 15.6307 15.3327 15.4349 15.1672L13.4395 13.4656C13.5834 13.3287 13.7055 13.1658 13.7939 12.9743L15.0866 10.1749L15.5007 11.2779C15.5181 11.3758 15.551 11.472 15.6203 11.5525C15.6827 11.627 15.7624 11.6764 15.8473 11.7111C15.856 11.7154 15.8664 11.7163 15.8768 11.7189C15.9305 11.7379 15.9851 11.7561 16.0414 11.7587C16.1081 11.7648 16.1757 11.7561 16.2441 11.7371C16.2459 11.7362 16.2467 11.7362 16.2467 11.7362C16.2649 11.7319 16.2831 11.7353 16.3013 11.7275C16.3975 11.6912 16.4711 11.6296 16.5344 11.5577L18.8893 9.55892C19.1397 9.34838 19.034 8.97583 18.8234 8.72544Z" />
                    <path
                        d="M15.8446 7.30102C16.7562 7.30102 17.4951 6.56206 17.4951 5.65051C17.4951 4.73896 16.7562 4 15.8446 4C14.9331 4 14.1941 4.73896 14.1941 5.65051C14.1941 6.56206 14.9331 7.30102 15.8446 7.30102Z" />
                </symbol>

                <!-- inverted commas -->
                <symbol id="icon-inverted-commas" viewBox="0 0 32 32">
                    <path fill="#f4f4f4" style="fill: var(--color1, #f4f4f4)"
                        d="M8.2 17.468c1.547-0.612 2.787-0.452 3.72 0.481s1.211 2.421 0.831 4.463c-0.291 1.517-0.933 2.684-1.924 3.5-0.963 0.787-2.087 1.181-3.369 1.181-1.751 0-2.96-0.671-3.631-2.013-0.672-1.369-0.803-3.207-0.395-5.512 0.233-1.253 0.613-2.523 1.137-3.805 0.639-1.514 1.342-2.808 2.154-4.023l-0.054 0.086c0.876-1.343 2.013-2.509 3.413-3.5 1.309-0.943 2.874-1.62 4.57-1.916l0.067-0.010-0.437 4.637c-1.429 0.292-2.699 1.035-3.807 2.231-1.108 1.167-1.867 2.567-2.275 4.2zM21.369 17.468c1.547-0.612 2.787-0.452 3.72 0.481s1.209 2.421 0.831 4.463c-0.292 1.517-0.933 2.684-1.925 3.5-0.963 0.787-2.085 1.181-3.368 1.181-1.751 0-2.96-0.671-3.632-2.013-0.671-1.369-0.801-3.207-0.393-5.512 0.233-1.253 0.613-2.523 1.137-3.805 0.525-1.284 1.225-2.596 2.1-3.937 0.875-1.343 2.013-2.509 3.413-3.5 1.309-0.943 2.873-1.619 4.567-1.916l0.067-0.010-0.437 4.637c-1.429 0.292-2.697 1.035-3.805 2.231-1.109 1.167-1.867 2.567-2.276 4.2z">
                    </path>
                </symbol>

                <!-- гантелька без фону -->

        <symbol id="icon-barbell" viewBox="0 0 32 32">
            <path
                        d="M7.36 9.142h-1.92c-0.533 0-0.96 0.459-0.96 1.029v4.458h-0.96c-0.176 0-0.32 0.154-0.32 0.342v2.058c0 0.189 0.144 0.342 0.32 0.342h0.96v4.458c0 0.57 0.429 1.029 0.96 1.029h1.92c0.533 0 0.96-0.459 0.96-1.029v-11.658c0-0.57-0.429-1.029-0.96-1.029zM28.48 14.629h-0.96v-4.458c0-0.57-0.427-1.029-0.96-1.029h-1.92c-0.531 0-0.96 0.459-0.96 1.029v11.658c0 0.57 0.429 1.029 0.96 1.029h1.92c0.531 0 0.96-0.459 0.96-1.029v-4.458h0.96c0.176 0 0.32-0.154 0.32-0.342v-2.058c0-0.189-0.144-0.342-0.32-0.342zM21.44 6.4h-1.92c-0.531 0-0.96 0.459-0.96 1.029v7.2h-5.12v-7.2c0-0.57-0.429-1.029-0.96-1.029h-1.92c-0.531 0-0.96 0.459-0.96 1.029v17.142c0 0.57 0.429 1.029 0.96 1.029h1.92c0.533 0 0.96-0.459 0.96-1.029v-7.2h5.12v7.2c0 0.57 0.429 1.029 0.96 1.029h1.92c0.531 0 0.96-0.459 0.96-1.029v-17.142c0-0.57-0.429-1.029-0.96-1.029z">
            </path>
        </symbol>

 <!-- header-menu -->
         <symbol id="icon-menu-01" viewBox="0 0 32 32">
             <path stroke-linejoin="round"
                        stroke-linecap="round" stroke-miterlimit="4" stroke-width="2.6667" d="M4 16h24M4 8h24M4 24h24">
             </path>
        </symbol>

        
        <symbol id="icon-header-menu" viewBox="0 0 32 32">
            <path stroke-linejoin="round" stroke-linecap="round" stroke-miterlimit="4" stroke-width="2"
                d="M28 13.333h-24M28 8h-24M28 18.667h-24M28 24h-24"></path>
        </symbol>

        <!-- heart -->
        <symbol id="icon-heart" viewBox="0 0 32 32">
            <path stroke-linejoin="round" stroke-linecap="round" stroke-miterlimit="4" stroke-width="2.4"
                d="M27.787 6.147c-0.681-0.681-1.49-1.222-2.38-1.591s-1.844-0.559-2.807-0.559c-0.963 0-1.917 0.19-2.807 0.559s-1.699 0.909-2.38 1.591l-1.413 1.413-1.413-1.413c-1.376-1.376-3.241-2.148-5.187-2.148s-3.811 0.773-5.187 2.148c-1.376 1.376-2.148 3.241-2.148 5.187s0.773 3.811 2.148 5.187l11.787 11.787 11.787-11.787c0.681-0.681 1.222-1.49 1.591-2.38s0.559-1.844 0.559-2.807c0-0.963-0.19-1.917-0.559-2.807s-0.909-1.699-1.591-2.38z">
            </path>
        </symbol>

        <!-- trash Modalka -->
      <symbol id="icon-trash" viewBox="0 0 32 32">
<path stroke-linejoin="round" stroke-linecap="round" stroke-miterlimit="4" stroke-width="2.4" d="M21.333 8v-1.067c0-1.493 0-2.24-0.291-2.811-0.256-0.502-0.664-0.91-1.165-1.165-0.57-0.291-1.317-0.291-2.811-0.291h-2.133c-1.493 0-2.24 0-2.811 0.291-0.502 0.256-0.91 0.664-1.165 1.165-0.291 0.57-0.291 1.317-0.291 2.811v1.067M13.333 15.333v6.667M18.667 15.333v6.667M4 8h24M25.333 8v14.933c0 2.24 0 3.36-0.436 4.216-0.383 0.753-0.995 1.364-1.748 1.748-0.856 0.436-1.976 0.436-4.216 0.436h-5.867c-2.24 0-3.36 0-4.216-0.436-0.753-0.384-1.365-0.995-1.748-1.748-0.436-0.856-0.436-1.976-0.436-4.216v-14.933"></path>
</symbol>

        <!-- header-menu -->

        <symbol id="icon-menu-01" viewBox="0 0 32 32">
            <path fill="#242424" stroke="#242424" style="stroke: #242424" stroke-linejoin="round" stroke-linecap="round" stroke-miterlimit="4" stroke-width="2.6667" d="M4 16h24M4 8h24M4 24h24"></path>
        </symbol>

<!-- scroll-up -->

        <symbol id="icon-arrow-top" viewBox="0 0 31 32">
            <path fill="#f4f4f4" style="fill: var(--color1, #f4f4f4)" d="M16.413 7.652v17.019h-1.811v-17.019l-8.509 8.509-1.28-1.28 10.693-10.696 10.696 10.695-1.28 1.28-8.51-8.509z"></path>
        </symbol>



          <symbol id="icon-menu-01" viewBox="0 0 32 32">
           <path  stroke-linejoin="round" stroke-linecap="round" stroke-miterlimit="4" stroke-width="2.6667" d="M4 16h24M4 8h24M4 24h24"></path>
          </symbol>



        <symbol id="icon-header-menu" viewBox="0 0 32 32">
            <path stroke-linejoin="round" stroke-linecap="round" stroke-miterlimit="4" stroke-width="2"
        d="M28 13.333h-24M28 8h-24M28 18.667h-24M28 24h-24"></path>
            </symbol>

<!-- heart -->
        <symbol id="icon-heart" viewBox="0 0 32 32">
            <path stroke-linejoin="round" stroke-linecap="round" stroke-miterlimit="4" stroke-width="2.4"
        d="M27.787 6.147c-0.681-0.681-1.49-1.222-2.38-1.591s-1.844-0.559-2.807-0.559c-0.963 0-1.917 0.19-2.807 0.559s-1.699 0.909-2.38 1.591l-1.413 1.413-1.413-1.413c-1.376-1.376-3.241-2.148-5.187-2.148s-3.811 0.773-5.187 2.148c-1.376 1.376-2.148 3.241-2.148 5.187s0.773 3.811 2.148 5.187l11.787 11.787 11.787-11.787c0.681-0.681 1.222-1.49 1.591-2.38s0.559-1.844 0.559-2.807c0-0.963-0.19-1.917-0.559-2.807s-0.909-1.699-1.591-2.38z">
            </path>
        </symbol>


        <symbol id="icon-brightness-contrast" viewBox="0 0 32 32">
            <path d="M16 8c-4.418 0-8 3.582-8 8s3.582 8 8 8 8-3.582 8-8-3.582-8-8-8zM16 21v-10c2.757 0 5 2.243 5 5s-2.243 5-5 5zM16 26c1.105 0 2 0.895 2 2v2c0 1.105-0.895 2-2 2s-2-0.895-2-2v-2c0-1.105 0.895-2 2-2zM16 6c-1.105 0-2-0.895-2-2v-2c0-1.105 0.895-2 2-2s2 0.895 2 2v2c0 1.105-0.895 2-2 2zM30 14c1.105 0 2 0.895 2 2s-0.895 2-2 2h-2c-1.105 0-2-0.895-2-2s0.895-2 2-2h2zM6 16c0 1.105-0.895 2-2 2h-2c-1.105 0-2-0.895-2-2s0.895-2 2-2h2c1.105 0 2 0.895 2 2zM25.899 23.071l1.414 1.414c0.781 0.781 0.781 2.047 0 2.828s-2.047 0.781-2.828 0l-1.414-1.414c-0.781-0.781-0.781-2.047 0-2.828s2.047-0.781 2.828 0zM6.101 8.929l-1.414-1.414c-0.781-0.781-0.781-2.047 0-2.828s2.047-0.781 2.828 0l1.414 1.414c0.781 0.781 0.781 2.047 0 2.828s-2.047 0.781-2.828 0zM25.899 8.929c-0.781 0.781-2.047 0.781-2.828 0s-0.781-2.047 0-2.828l1.414-1.414c0.781-0.781 2.047-0.781 2.828 0s0.781 2.047 0 2.828l-1.414 1.414zM6.101 23.071c0.781-0.781 2.047-0.781 2.828 0s0.781 2.047 0 2.828l-1.414 1.414c-0.781 0.781-2.047 0.781-2.828 0s-0.781-2.047 0-2.828l1.414-1.414z"></path>


       	<!-- icon-circle-up to sec.info -->
		<symbol id="icon-circle-up" viewBox="0 0 32 32">
			<path d="M0 16c0 8.837 7.163 16 16 16s16-7.163 16-16-7.163-16-16-16-16 7.163-16 16zM29 16c0 7.18-5.82 13-13 13s-13-5.82-13-13 5.82-13 13-13 13 5.82 13 13z">
			</path>
			<path d="M22.086 20.914l2.829-2.829-8.914-8.914-8.914 8.914 2.828 2.828 6.086-6.086z">
			</path>
		</symbol>
		<!-- icon-circle-down to sec.info -->
		<symbol id="icon-circle-down" viewBox="0 0 32 32">
			<path d="M32 16c0-8.837-7.163-16-16-16s-16 7.163-16 16 7.163 16 16 16 16-7.163 16-16zM3 16c0-7.18 5.82-13 13-13s13 5.82 13 13-5.82 13-13 13-13-5.82-13-13z">
			</path>
			<path d="M9.914 11.086l-2.829 2.829 8.914 8.914 8.914-8.914-2.828-2.828-6.086 6.086z">
			</path>
		</symbol>

        <!-- icon-input -->
        <symbol id="icon-search" viewBox="0 0 32 32">
            <path stroke-linejoin="round" stroke-linecap="round" stroke-miterlimit="4" stroke-width="2.6667" d="M14.667 25.333c5.891 0 10.667-4.776 10.667-10.667s-4.776-10.667-10.667-10.667c-5.891 0-10.667 4.776-10.667 10.667s4.776 10.667 10.667 10.667z"></path>
            <path stroke-linejoin="round" stroke-linecap="round" stroke-miterlimit="4" stroke-width="2.6667" d="M28 28l-5.8-5.8"></path>
        </symbol>
       
         <symbol id="icon-reset" viewBox="0 0 32 32">
            <path stroke-linejoin="round" stroke-linecap="round" stroke-miterlimit="4" stroke-width="2.6667" d="M22.667 9.333l-13.333 13.333M9.333 9.333l13.333 13.333"></path>
        </symbol>

        <!-- Сонечко -->
        <symbol id="icon-Astral-Sunny" viewBox="0 0 32 32">
        <path d="M16.058 2.852c-0.009 0.352-0.030 1.284-0.047 2.072-0.017 0.786-0.041 1.844-0.053 2.35-0.011 0.504-0.036 1.619-0.053 2.478-0.017 0.857-0.036 1.671-0.043 1.805-0.004 0.135-0.019 0.803-0.032 1.485s-0.028 1.282-0.036 1.335l-0.011 0.096-0.105-0.267c-0.060-0.147-0.235-0.605-0.393-1.015-0.156-0.412-0.431-1.128-0.609-1.591-0.179-0.464-0.5-1.305-0.716-1.869s-0.654-1.709-0.972-2.542c-0.32-0.835-0.617-1.613-0.662-1.73-0.064-0.173-0.681-1.769-0.859-2.228-0.026-0.062-0.047-0.109-0.051-0.105-0.009 0.009 0.197 0.622 0.889 2.664 0.237 0.699 0.553 1.636 0.705 2.083 0.15 0.446 0.453 1.339 0.673 1.987 0.22 0.645 0.528 1.555 0.684 2.019s0.425 1.26 0.598 1.769c0.171 0.508 0.31 0.936 0.305 0.948-0.011 0.032-0.006 0.038-2.401-2.728-1.16-1.339-2.414-2.786-2.783-3.213-0.372-0.429-0.799-0.923-0.953-1.1-0.726-0.846-1.803-2.079-1.837-2.106-0.053-0.043-0.103-0.105 3.96 4.977 4.163 5.21 3.621 4.527 3.608 4.539-0.011 0.011-1.252-0.675-3.766-2.083-1.604-0.897-4.672-2.606-6.056-3.375-0.523-0.291-0.763-0.417-0.737-0.391 0.021 0.024 0.974 0.607 2.531 1.555 0.429 0.261 1.342 0.818 2.029 1.239s1.688 1.032 2.222 1.356c1.512 0.921 2.999 1.829 3.264 1.993 0.237 0.147 0.305 0.201 0.226 0.179-0.024-0.006-0.088-0.017-0.147-0.026-0.115-0.015-0.34-0.051-2.2-0.352-2.681-0.436-3.625-0.587-4.817-0.78-0.688-0.111-1.485-0.239-1.773-0.286-2.023-0.331-2.931-0.474-2.952-0.468-0.013 0.004 0.13 0.038 0.316 0.077 0.878 0.182 1.403 0.288 3.010 0.613 0.953 0.192 2.375 0.481 3.162 0.641 0.788 0.16 2.046 0.414 2.798 0.566 2.66 0.536 2.542 0.511 2.516 0.534-0.024 0.019-0.122 0.041-1.705 0.34-2.034 0.387-3.127 0.596-3.482 0.664-0.175 0.034-0.474 0.092-0.662 0.126-0.188 0.036-0.696 0.132-1.132 0.216-0.434 0.083-0.987 0.19-1.228 0.235-0.707 0.135-2.104 0.399-2.702 0.515-1.13 0.218-1.188 0.239-0.265 0.105 0.323-0.047 0.647-0.096 0.724-0.107s0.523-0.079 0.993-0.15 1.527-0.231 2.35-0.355c0.822-0.122 1.649-0.246 1.837-0.276 0.188-0.028 0.891-0.135 1.559-0.235 0.671-0.1 1.337-0.201 1.485-0.224s0.594-0.090 0.993-0.15 0.859-0.128 1.021-0.152c0.16-0.023 0.303-0.041 0.316-0.036 0.026 0.009-0.852 0.538-4.531 2.73-1.102 0.656-4.65 2.777-5.426 3.243-0.461 0.278-0.607 0.372-0.449 0.293 0.12-0.060-0.004 0.006 7.338-3.995 1.363-0.743 2.668-1.455 2.901-1.581s0.427-0.224 0.434-0.218c0.011 0.011-0.156 0.222-0.91 1.147-0.254 0.312-0.731 0.897-1.060 1.303s-0.978 1.203-1.442 1.773c-1.897 2.333-2.63 3.234-3.347 4.121-0.417 0.513-0.814 1.002-0.884 1.085-0.276 0.335-0.075 0.124 0.543-0.575 0.355-0.404 0.652-0.737 0.658-0.743s0.218-0.246 0.47-0.534 0.641-0.731 0.865-0.985c0.222-0.252 0.82-0.929 1.324-1.504 0.506-0.575 1.034-1.177 1.175-1.337s0.453-0.515 0.694-0.788c0.241-0.273 0.664-0.754 0.94-1.068 0.276-0.312 0.699-0.793 0.94-1.068 0.241-0.273 0.44-0.485 0.444-0.468 0.002 0.017-0.092 0.308-0.211 0.649-0.117 0.34-0.314 0.908-0.436 1.26s-0.265 0.765-0.316 0.919c-0.053 0.152-0.286 0.825-0.517 1.495-0.231 0.669-0.726 2.102-1.1 3.183-1.087 3.147-1.429 4.142-1.423 4.148 0.006 0.009 0.466-1.162 1.829-4.661 0.421-1.081 1.049-2.692 1.395-3.578s0.771-1.978 0.944-2.425c0.173-0.446 0.323-0.82 0.331-0.829 0.021-0.023 0.038 0.652 0.064 2.431 0.011 0.775 0.026 1.679 0.032 2.008 0.017 0.959 0.030 1.782 0.043 2.595 0.006 0.417 0.015 0.993 0.021 1.282s0.021 1.177 0.034 1.976c0.013 0.799 0.030 1.596 0.041 1.773l0.015 0.32 0.004-0.374c0.002-0.205 0.009-0.47 0.013-0.587 0.006-0.117 0.036-1.344 0.064-2.724 0.030-1.38 0.068-3.102 0.085-3.824s0.047-2.044 0.064-2.937c0.019-0.893 0.041-1.7 0.049-1.794l0.015-0.171 0.179 0.47c0.098 0.258 0.312 0.816 0.474 1.239 0.16 0.423 0.468 1.226 0.681 1.784s0.551 1.442 0.752 1.965c0.199 0.523 0.414 1.085 0.476 1.25 0.064 0.165 0.237 0.615 0.384 1.004 0.15 0.387 0.352 0.916 0.451 1.175s0.327 0.859 0.511 1.335c0.184 0.476 0.372 0.97 0.421 1.096 0.047 0.126 0.090 0.226 0.094 0.222 0.009-0.009-0.423-1.299-1.049-3.144-0.711-2.093-0.778-2.292-1.122-3.311-0.186-0.553-0.421-1.245-0.519-1.538-0.1-0.295-0.38-1.122-0.624-1.837-0.244-0.718-0.485-1.429-0.536-1.581-0.051-0.154-0.094-0.282-0.094-0.286 0-0.030 0.382 0.404 1.228 1.386 0.203 0.237 0.722 0.835 2.734 3.162 1.102 1.273 1.062 1.224 1.805 2.085 0.335 0.387 0.677 0.78 0.758 0.876 0.502 0.579 1.549 1.782 1.598 1.835 0.139 0.145-0.308-0.414-3.916-4.926-2.081-2.598-3.781-4.734-3.781-4.744s0.041 0.004 0.092 0.034c0.049 0.028 0.35 0.194 0.666 0.37 0.581 0.323 1.681 0.936 3.322 1.854 0.487 0.273 1.314 0.735 1.837 1.025s1.576 0.878 2.339 1.303c0.765 0.425 1.643 0.914 1.952 1.087s0.568 0.31 0.573 0.303c0.004-0.004-0.132-0.094-0.308-0.199-0.173-0.107-0.47-0.286-0.658-0.402s-0.895-0.545-1.57-0.957c-0.675-0.41-1.66-1.013-2.19-1.335-0.528-0.323-1.111-0.679-1.292-0.79s-0.461-0.28-0.619-0.378c-0.158-0.096-0.995-0.607-1.858-1.132s-1.675-1.021-1.801-1.098c-0.132-0.081-0.218-0.143-0.199-0.147s0.254 0.028 0.521 0.070c1.162 0.188 1.436 0.231 1.98 0.32 0.318 0.051 0.735 0.12 0.929 0.15s0.613 0.098 0.929 0.15c0.318 0.051 0.731 0.12 0.919 0.15s0.519 0.083 0.737 0.12c0.218 0.034 0.568 0.092 0.78 0.126 0.526 0.083 1.374 0.22 3.044 0.491 1.41 0.229 2.132 0.342 2.16 0.34 0.083-0.004 0.023-0.017-3.174-0.662-1.162-0.233-2.427-0.487-2.809-0.566-0.382-0.077-1.664-0.335-2.852-0.575-2.865-0.577-3.029-0.611-3.063-0.63-0.041-0.021-0.019-0.028 0.393-0.105 0.188-0.036 0.545-0.103 0.79-0.15 1.203-0.231 1.961-0.376 2.36-0.451 0.241-0.045 0.995-0.19 1.677-0.32s2.066-0.395 3.076-0.587c2.672-0.511 3.629-0.694 3.653-0.705 0.053-0.024-0.517 0.053-1.559 0.214-0.423 0.064-4.832 0.731-5.17 0.78-0.070 0.011-0.451 0.068-0.844 0.128s-1 0.152-1.346 0.203c-0.346 0.053-1.015 0.154-1.485 0.224-1.32 0.201-1.591 0.239-1.63 0.231-0.030-0.006 0.876-0.558 3.125-1.897 0.628-0.374 1.944-1.16 3.332-1.991 0.718-0.429 1.899-1.136 2.628-1.572 1.207-0.72 1.609-0.97 1.292-0.799-0.53 0.286-1.196 0.649-2.905 1.581-1.087 0.594-2.35 1.282-2.809 1.532-0.457 0.25-1.668 0.91-2.692 1.468-2.309 1.26-2.275 1.241-2.275 1.22 0-0.011 0.041-0.066 0.088-0.124 0.049-0.060 0.246-0.299 0.436-0.534s0.694-0.854 1.119-1.378 0.933-1.147 1.128-1.389c0.197-0.241 0.752-0.923 1.235-1.517 2.877-3.54 3.646-4.486 3.79-4.668 0.137-0.175-0.267 0.273-1.376 1.536-0.246 0.282-0.746 0.85-1.111 1.262-0.363 0.412-1.22 1.384-1.901 2.16-2.506 2.848-2.807 3.191-3.288 3.736-0.269 0.305-0.493 0.56-0.498 0.564s-0.011 0.004-0.019-0.002c-0.013-0.013 0.053-0.207 0.671-1.993 0.224-0.647 0.504-1.459 0.624-1.805s0.338-0.976 0.485-1.399c0.145-0.423 0.406-1.173 0.577-1.666 0.169-0.493 0.35-1.017 0.402-1.164 0.276-0.793 1.177-3.414 1.196-3.482 0.032-0.111-0.011-0.026-0.096 0.192-0.049 0.124-0.31 0.786-0.577 1.474s-0.795 2.038-1.171 3.001c-0.376 0.963-0.887 2.275-1.136 2.916-0.395 1.013-0.955 2.45-1.337 3.429-0.066 0.165-0.126 0.308-0.139 0.32-0.011 0.011-0.019-0.096-0.021-0.288 0-0.171-0.004-0.367-0.009-0.438s-0.013-0.547-0.021-1.057c-0.006-0.511-0.021-1.468-0.032-2.126s-0.030-1.822-0.043-2.585c-0.011-0.765-0.026-1.577-0.032-1.805-0.004-0.229-0.021-1.128-0.034-1.997-0.028-1.893-0.045-2.23-0.068-1.303zM16.408 14.537c0.681 0.175 1.147 0.818 1.102 1.521-0.068 1.027-1.143 1.668-2.076 1.235-0.829-0.382-1.115-1.397-0.607-2.158 0.344-0.513 0.978-0.752 1.581-0.598z"></path>
        <path d="M7.199 5.349c0 0.004 0.017 0.021 0.038 0.036 0.032 0.028 0.034 0.026 0.006-0.009s-0.045-0.045-0.045-0.028zM2.602 13.516c0.015 0.006 0.034 0.004 0.041-0.002 0.009-0.006-0.004-0.013-0.028-0.011-0.023 0-0.030 0.006-0.013 0.013zM29.614 13.644c0.019 0.004 0.049 0.004 0.064 0 0.013-0.006-0.002-0.011-0.038-0.011-0.034 0-0.047 0.004-0.026 0.011zM29.561 18.429c0.013 0.004 0.038 0.004 0.053 0 0.013-0.006 0.002-0.011-0.028-0.011s-0.041 0.004-0.026 0.011z"></path>
        </symbol>

    </defs>

</svg>
