<svg aria-hidden="true" style="position: absolute; width: 0; height: 0; overflow: hidden;" version="1.1" xmlns="http://www.w3.org/2000/svg" xmlns:xlink="http://www.w3.org/1999/xlink">
<defs>
<symbol id="icon-star-yellow" viewBox="0 0 34 32">
<path fill="#eea10c" style="fill: var(--color1, #eea10c)" d="M14.89 2.282c0.738-2.267 3.946-2.267 4.682 0l2.080 6.4c0.33 0.997 1.253 1.703 2.341 1.703h6.732c2.385 0 3.375 3.052 1.447 4.453l-5.447 3.956c-0.618 0.453-1.014 1.176-1.014 1.991 0 0.272 0.044 0.534 0.126 0.778l-0.005-0.017 2.080 6.402c0.738 2.267-1.858 4.155-3.788 2.752l-5.445-3.956c-0.401-0.294-0.903-0.471-1.447-0.471s-1.047 0.176-1.454 0.475l0.007-0.005-5.445 3.956c-1.93 1.403-4.524-0.485-3.788-2.752l2.080-6.4c0.077-0.228 0.121-0.49 0.121-0.763 0-0.816-0.397-1.539-1.008-1.987l-0.007-0.005-5.447-3.956c-1.927-1.403-0.935-4.455 1.447-4.455h6.732c1.086-0.001 2.007-0.705 2.333-1.681l0.005-0.017 2.082-6.4z"></path>
</symbol>
<symbol id="icon-equipment" viewBox="0 0 34 32">
<path fill="#242424" style="fill: var(--color2, #242424)" d="M32 16c0 8.837-7.163 16-16 16s-16-7.163-16-16c0-8.837 7.163-16 16-16s16 7.163 16 16z"></path>
<path fill="#f4f4f4" style="fill: var(--color3, #f4f4f4)" d="M10.6 11.714h-1.2c-0.332 0-0.6 0.287-0.6 0.643v2.786h-0.6c-0.11 0-0.2 0.096-0.2 0.214v1.286c0 0.118 0.090 0.214 0.2 0.214h0.6v2.786c0 0.356 0.268 0.643 0.6 0.643h1.2c0.332 0 0.6-0.287 0.6-0.643v-7.286c0-0.356-0.268-0.643-0.6-0.643zM23.8 15.143h-0.6v-2.786c0-0.356-0.267-0.643-0.6-0.643h-1.2c-0.332 0-0.6 0.287-0.6 0.643v7.286c0 0.356 0.267 0.643 0.6 0.643h1.2c0.332 0 0.6-0.287 0.6-0.643v-2.786h0.6c0.11 0 0.2-0.096 0.2-0.214v-1.286c0-0.118-0.090-0.214-0.2-0.214zM19.4 10h-1.2c-0.332 0-0.6 0.287-0.6 0.643v4.5h-3.2v-4.5c0-0.356-0.268-0.643-0.6-0.643h-1.2c-0.332 0-0.6 0.287-0.6 0.643v10.714c0 0.356 0.268 0.643 0.6 0.643h1.2c0.332 0 0.6-0.287 0.6-0.643v-4.5h3.2v4.5c0 0.356 0.267 0.643 0.6 0.643h1.2c0.332 0 0.6-0.287 0.6-0.643v-10.714c0-0.356-0.267-0.643-0.6-0.643z"></path>
</symbol>
<symbol id="icon-Star" viewBox="0 0 34 32">
<path fill="#f4f4f4" opacity="0.2" style="fill: var(--color1, #f4f4f4)" d="M15.24 1.561c0.505-1.551 2.7-1.551 3.203 0l2.558 7.872c0.227 0.68 0.857 1.162 1.6 1.162h8.278c1.632 0 2.309 2.088 0.99 3.048l-6.696 4.864c-0.423 0.31-0.694 0.804-0.694 1.362 0 0.186 0.030 0.365 0.086 0.533l-0.003-0.012 2.557 7.872c0.505 1.553-1.272 2.843-2.592 1.883l-6.695-4.864c-0.274-0.201-0.618-0.322-0.99-0.322s-0.716 0.121-0.995 0.325l0.005-0.003-6.696 4.864c-1.319 0.96-3.096-0.332-2.59-1.883l2.557-7.872c0.052-0.155 0.082-0.335 0.082-0.521 0-0.558-0.271-1.052-0.689-1.359l-0.005-0.003-6.696-4.864c-1.319-0.96-0.64-3.048 0.99-3.048h8.276c0 0 0 0 0 0 0.744 0 1.374-0.482 1.598-1.15l0.003-0.012 2.56-7.872z"></path>
</symbol>
</defs>
</svg>
